<?xml version="1.0" encoding="UTF-8"?>
<svg width="1200pt" height="1200pt" version="1.1" viewBox="0 0 1200 1200" xmlns="http://www.w3.org/2000/svg">
<defs><linearGradient gradientTransform="rotate(45)" gradientUnits="userSpaceOnUse" id="r" >
    <stop offset="0" stop-color="red"/>
    <stop offset="0.333" stop-color="#ff0"/>
    <stop offset="0.5" stop-color="#0f0"/>
    <stop offset="0.666" stop-color="cyan"/>
    <stop offset="0.833" stop-color="blue"/>
    <stop offset="1" stop-color="#f0f"/>
</linearGradient></defs>
 <g>
  <path fill="url(#r)" d="m335.29 35.293h-282.35c-10.59 0-17.648 7.0586-17.648 17.648v282.35c0 10.59 7.0586 17.648 17.648 17.648s17.648-7.0586 17.648-17.648v-264.7h264.71c10.59 0 17.648-7.0586 17.648-17.648-0.003906-10.59-7.0625-17.648-17.652-17.648z"/>
  <path fill="url(#r)" d="m1164.7 52.941c0-10.59-7.0586-17.648-17.648-17.648h-282.35c-10.59 0-17.648 7.0586-17.648 17.648s7.0586 17.648 17.648 17.648h264.71v264.71c0 10.59 7.0586 17.648 17.648 17.648s17.648-7.0586 17.648-17.648z"/>
  <path fill="url(#r)" d="m1164.7 864.71c0-10.59-7.0586-17.648-17.648-17.648s-17.648 7.0586-17.648 17.648v264.71l-264.7-0.003906c-10.59 0-17.648 7.0586-17.648 17.648s7.0586 17.648 17.648 17.648h282.35c10.59 0 17.648-7.0586 17.648-17.648z"/>
  <path fill="url(#r)" d="m35.293 1147.1c0 10.59 7.0586 17.648 17.648 17.648h282.35c10.59 0 17.648-7.0586 17.648-17.648s-7.0586-17.648-17.648-17.648h-264.7v-264.7c0-10.59-7.0586-17.648-17.648-17.648s-17.648 7.0586-17.648 17.648z"/>
  <path fill="url(#r)" d="m236.47 511.77v79.41c-60 3.5312-107.65 52.941-107.65 114.71 0 61.766 47.648 111.18 107.65 114.71v128.82c0 44.117 35.293 77.648 79.41 77.648h130.59l30 58.234c3.5312 5.293 8.8242 8.8242 15.883 8.8242h218.82c7.0586 0 12.352-3.5312 15.883-8.8242l30-58.234h130.59c44.117 0 77.648-35.293 77.648-77.648v-128.82c60-3.5312 107.65-52.941 107.65-114.71 0-61.766-47.648-111.18-107.65-114.71l-0.003906-79.41c0-44.117-35.293-77.648-77.648-77.648h-206.47l-37.059-105.88c26.473-17.645 44.117-45.883 44.117-77.645 0-49.41-38.824-88.234-88.234-88.234s-88.234 38.824-88.234 88.234c0 33.531 17.648 61.766 44.117 75.883l-37.059 105.88-204.71-0.003907c-42.352 0-77.648 35.297-77.648 79.414zm-74.117 192.35c0-42.352 31.766-75.883 72.352-79.41v157.06c-38.82-1.7656-72.352-37.059-72.352-77.648zm536.47 354.71h-197.65l-17.648-33.531h231.18zm338.82-354.71c0 42.352-31.766 75.883-72.352 79.41v-157.06c38.82 1.7656 72.352 35.297 72.352 77.648zm-109.41-192.35v435.88c0 24.707-19.41 42.352-42.352 42.352h-570c-24.707 0-44.117-19.41-44.117-42.352v-435.88c0-24.707 19.41-42.352 44.117-42.352h570c22.941-1.7656 42.352 17.645 42.352 42.352zm-328.23-314.12c30 0 52.941 22.941 52.941 52.941s-22.941 52.941-52.941 52.941-52.941-22.941-52.941-52.941 22.941-52.941 52.941-52.941zm-10.59 139.41c12.352 1.7656 8.8242 1.7656 21.176 0l33.531 95.293h-86.469z"/>
  <path fill="url(#r)" d="m538.23 660c0-54.707-44.117-98.824-98.824-98.824-54.707 0-98.824 44.117-98.824 98.824s44.117 98.824 98.824 98.824c54.707 0 98.824-45.883 98.824-98.824zm-162.35 0c0-35.293 28.234-63.531 63.531-63.531 35.293 0 63.531 28.234 63.531 63.531 0 35.293-28.234 63.531-63.531 63.531-35.297 0-63.531-30-63.531-63.531z"/>
  <path fill="url(#r)" d="m451.77 647.65c-7.0586-7.0586-17.648-7.0586-24.707 0-7.0586 7.0586-7.0586 19.41 0 24.707 5.293 5.293 12.352 7.0586 19.41 3.5312 10.59-5.2969 14.121-19.418 5.2969-28.238z"/>
  <path fill="url(#r)" d="m760.59 758.82c54.707 0 98.824-44.117 98.824-98.824s-44.117-98.824-98.824-98.824c-54.707 0-98.824 44.117-98.824 98.824 0 52.941 44.117 98.824 98.824 98.824zm0-162.36c35.293 0 63.531 28.234 63.531 63.531 0 35.293-28.234 63.531-63.531 63.531-35.293 0-63.531-28.234-63.531-63.531 0-35.293 28.234-63.531 63.531-63.531z"/>
  <path fill="url(#r)" d="m772.94 672.35c7.0586-7.0586 7.0586-17.648 0-24.707-7.0586-7.0586-17.648-7.0586-24.707 0-7.0586 5.293-7.0586 17.648 0 24.707 7.0586 5.2969 17.648 7.0586 24.707 0z"/>
  <path fill="url(#r)" d="m723.53 810h-247.06c-33.531 0-61.766 28.234-61.766 61.766s28.234 61.766 61.766 61.766h247.06c33.531 0 61.766-28.234 61.766-61.766s-28.234-61.766-61.762-61.766zm0 88.234h-247.06c-14.117 0-26.469-12.352-26.469-26.469s12.352-26.469 26.469-26.469h247.06c14.117 0 26.469 12.352 26.469 26.469 0.003906 14.117-12.348 26.469-26.465 26.469z"/>
  <path fill="url(#r)" d="m617.65 121.77v-38.824c0-10.59-7.0586-17.648-17.648-17.648s-17.648 7.0586-17.648 17.648v38.824c0 10.59 7.0586 17.648 17.648 17.648 10.59-0.003906 17.648-7.0625 17.648-17.648z"/>
  <path fill="url(#r)" d="m469.41 144.71 28.234 28.234c7.0586 7.0586 17.648 7.0586 24.707 0 7.0586-7.0586 7.0586-17.648 0-24.707l-28.234-28.234c-7.0586-7.0586-17.648-7.0586-24.707 0s-7.0586 17.648 0 24.707z"/>
  <path fill="url(#r)" d="m414.71 250.59c0 10.59 7.0586 17.648 17.648 17.648h38.824c10.59 0 17.648-7.0586 17.648-17.648s-7.0586-17.648-17.648-17.648h-38.824c-8.8242 0-17.648 7.0586-17.648 17.648z"/>
  <path fill="url(#r)" d="m709.41 250.59c0 10.59 7.0586 17.648 17.648 17.648h38.824c10.59 0 17.648-7.0586 17.648-17.648s-7.0586-17.648-17.648-17.648h-38.824c-8.8242 0-17.648 7.0586-17.648 17.648z"/>
  <path fill="url(#r)" d="m705.88 120-28.234 28.234c-7.0586 7.0586-7.0586 17.648 0 24.707 7.0586 7.0586 17.648 7.0586 24.707 0l28.234-28.234c7.0586-7.0586 7.0586-17.648 0-24.707s-17.648-7.0586-24.707 0z"/>
 </g>
</svg>
